<?xml version="1.0" encoding="UTF-8"?>
<!DOCTYPE svg PUBLIC "-//W3C//DTD SVG 1.1//EN" "http://www.w3.org/Graphics/SVG/1.1/DTD/svg11.dtd">
<svg xmlns="http://www.w3.org/2000/svg" version="1.1" width="64px" height="64px" style="shape-rendering:geometricPrecision; text-rendering:geometricPrecision; image-rendering:optimizeQuality; fill-rule:evenodd; clip-rule:evenodd" xmlns:xlink="http://www.w3.org/1999/xlink">
<g><path style="opacity:0.794" fill="currentColor" d="M 7.5,-0.5 C 23.5,-0.5 39.5,-0.5 55.5,-0.5C 57.1436,0.316435 58.3103,1.64977 59,3.5C 59.6667,10.1667 59.6667,16.8333 59,23.5C 57.06,27.4373 54.3933,30.7707 51,33.5C 50.3292,32.7476 49.4959,32.4142 48.5,32.5C 49.1771,28.6252 51.0104,25.2918 54,22.5C 54.6667,20.8333 54.6667,19.1667 54,17.5C 51.5,20.6667 49,23.8333 46.5,27C 45.552,27.4828 44.552,27.6495 43.5,27.5C 43.5,26.8333 43.1667,26.5 42.5,26.5C 42.3433,25.1266 42.51,23.7932 43,22.5C 45.4145,19.986 47.5812,17.3194 49.5,14.5C 50.1667,14.5 50.5,14.1667 50.5,13.5C 51.4286,12.0639 52.5952,10.7305 54,9.5C 54.7203,7.88762 54.5536,6.38762 53.5,5C 38.8333,4.33333 24.1667,4.33333 9.5,5C 8.60832,8.40469 9.60832,11.238 12.5,13.5C 12.5,14.1667 12.8333,14.5 13.5,14.5C 15.4188,17.3194 17.5855,19.986 20,22.5C 20.49,23.7932 20.6567,25.1266 20.5,26.5C 19.8333,26.5 19.5,26.8333 19.5,27.5C 18.0783,27.2914 16.745,26.7914 15.5,26C 13.3333,23.1667 11.1667,20.3333 9,17.5C 8.69693,21.9204 10.3636,25.5871 14,28.5C 14.49,29.7932 14.6567,31.1266 14.5,32.5C 13.5041,32.4142 12.6708,32.7476 12,33.5C 8.60668,30.7707 5.94001,27.4373 4,23.5C 3.33333,16.8333 3.33333,10.1667 4,3.5C 4.68972,1.64977 5.85639,0.316435 7.5,-0.5 Z M 50.5,13.5 C 50.5,12.1667 50.5,10.8333 50.5,9.5C 37.8333,9.5 25.1667,9.5 12.5,9.5C 12.5,10.8333 12.5,12.1667 12.5,13.5C 9.60832,11.238 8.60832,8.40469 9.5,5C 24.1667,4.33333 38.8333,4.33333 53.5,5C 54.5536,6.38762 54.7203,7.88762 54,9.5C 52.5952,10.7305 51.4286,12.0639 50.5,13.5 Z M 13.5,14.5 C 25.5,14.5 37.5,14.5 49.5,14.5C 47.5812,17.3194 45.4145,19.986 43,22.5C 42.51,23.7932 42.3433,25.1266 42.5,26.5C 38.9684,25.1248 35.3017,24.1248 31.5,23.5C 27.6983,24.1248 24.0316,25.1248 20.5,26.5C 20.6567,25.1266 20.49,23.7932 20,22.5C 17.5855,19.986 15.4188,17.3194 13.5,14.5 Z M 19.5,27.5 C 17.614,28.9301 15.9473,30.5968 14.5,32.5C 14.6567,31.1266 14.49,29.7932 14,28.5C 10.3636,25.5871 8.69693,21.9204 9,17.5C 11.1667,20.3333 13.3333,23.1667 15.5,26C 16.745,26.7914 18.0783,27.2914 19.5,27.5 Z M 48.5,32.5 C 47.0527,30.5968 45.386,28.9301 43.5,27.5C 44.552,27.6495 45.552,27.4828 46.5,27C 49,23.8333 51.5,20.6667 54,17.5C 54.6667,19.1667 54.6667,20.8333 54,22.5C 51.0104,25.2918 49.1771,28.6252 48.5,32.5 Z"/></g>
<g><path style="opacity:0.802" fill="currentColor" d="M 50.5,13.5 C 49.8333,13.5 49.5,13.8333 49.5,14.5C 37.5,14.5 25.5,14.5 13.5,14.5C 12.8333,14.5 12.5,14.1667 12.5,13.5C 12.5,12.1667 12.5,10.8333 12.5,9.5C 25.1667,9.5 37.8333,9.5 50.5,9.5C 50.5,10.8333 50.5,12.1667 50.5,13.5 Z"/></g>
<g><path style="opacity:0.786" fill="currentColor" d="M 42.5,26.5 C 43.1667,26.5 43.5,26.8333 43.5,27.5C 45.386,28.9301 47.0527,30.5968 48.5,32.5C 54.5371,46.3938 50.8704,56.7271 37.5,63.5C 33.5,63.5 29.5,63.5 25.5,63.5C 12.1296,56.7271 8.4629,46.3938 14.5,32.5C 15.9473,30.5968 17.614,28.9301 19.5,27.5C 20.1667,27.5 20.5,27.1667 20.5,26.5C 24.0316,25.1248 27.6983,24.1248 31.5,23.5C 35.3017,24.1248 38.9684,25.1248 42.5,26.5 Z M 26.5,30.5 C 25.4019,31.397 25.4019,32.2303 26.5,33C 29.8333,35 33.1667,35 36.5,33C 37.5981,32.2303 37.5981,31.397 36.5,30.5C 40.4287,31.4308 43.0953,33.7641 44.5,37.5C 43.5416,37.0472 42.7083,36.3805 42,35.5C 39.6417,40.017 40.3084,44.017 44,47.5C 45.3515,45.4062 45.8515,43.0728 45.5,40.5C 47.1786,45.3836 46.1786,49.7169 42.5,53.5C 42.5,52.5 42.5,51.5 42.5,50.5C 37.5981,50.268 34.2647,52.4347 32.5,57C 33.7932,57.49 35.1266,57.6567 36.5,57.5C 33.1667,58.8333 29.8333,58.8333 26.5,57.5C 27.8734,57.6567 29.2068,57.49 30.5,57C 28.7353,52.4347 25.4019,50.268 20.5,50.5C 20.5,51.5 20.5,52.5 20.5,53.5C 16.8214,49.7169 15.8214,45.3836 17.5,40.5C 17.1485,43.0728 17.6485,45.4062 19,47.5C 22.6916,44.017 23.3583,40.017 21,35.5C 20.2917,36.3805 19.4584,37.0472 18.5,37.5C 19.9047,33.7641 22.5713,31.4308 26.5,30.5 Z"/></g>
<g><path style="opacity:0.667" fill="currentColor" d="M 26.5,30.5 C 29.8333,30.5 33.1667,30.5 36.5,30.5C 37.5981,31.397 37.5981,32.2303 36.5,33C 33.1667,35 29.8333,35 26.5,33C 25.4019,32.2303 25.4019,31.397 26.5,30.5 Z"/></g>
<g><path style="opacity:0.629" fill="currentColor" d="M 17.5,40.5 C 18.404,39.791 18.7373,38.791 18.5,37.5C 19.4584,37.0472 20.2917,36.3805 21,35.5C 23.3583,40.017 22.6916,44.017 19,47.5C 17.6485,45.4062 17.1485,43.0728 17.5,40.5 Z"/></g>
<g><path style="opacity:0.629" fill="currentColor" d="M 44.5,37.5 C 44.2627,38.791 44.596,39.791 45.5,40.5C 45.8515,43.0728 45.3515,45.4062 44,47.5C 40.3084,44.017 39.6417,40.017 42,35.5C 42.7083,36.3805 43.5416,37.0472 44.5,37.5 Z"/></g>
<g><path style="opacity:0.786" fill="currentColor" d="M 30.5,37.5 C 32.764,38.5813 34.9307,39.9146 37,41.5C 37.7699,46.0885 35.9365,48.7552 31.5,49.5C 27.0635,48.7552 25.2301,46.0885 26,41.5C 27.9923,40.6719 29.4923,39.3386 30.5,37.5 Z"/></g>
<g><path style="opacity:0.616" fill="currentColor" d="M 26.5,57.5 C 26.1583,56.6618 25.4916,56.3284 24.5,56.5C 24.1583,55.6618 23.4916,55.3284 22.5,55.5C 22.5,54.8333 22.1667,54.5 21.5,54.5C 21.5,53.8333 21.1667,53.5 20.5,53.5C 20.5,52.5 20.5,51.5 20.5,50.5C 25.4019,50.268 28.7353,52.4347 30.5,57C 29.2068,57.49 27.8734,57.6567 26.5,57.5 Z"/></g>
<g><path style="opacity:0.616" fill="currentColor" d="M 42.5,53.5 C 41.8333,53.5 41.5,53.8333 41.5,54.5C 40.8333,54.5 40.5,54.8333 40.5,55.5C 39.5084,55.3284 38.8417,55.6618 38.5,56.5C 37.5084,56.3284 36.8417,56.6618 36.5,57.5C 35.1266,57.6567 33.7932,57.49 32.5,57C 34.2647,52.4347 37.5981,50.268 42.5,50.5C 42.5,51.5 42.5,52.5 42.5,53.5 Z"/></g>
</svg>
